<?xml version="1.0" encoding="utf-8"?>
<!-- Generator: Adobe Illustrator 22.0.0, SVG Export Plug-In . SVG Version: 6.00 Build 0)  -->
<svg version="1.1" id="Layer_1" xmlns="http://www.w3.org/2000/svg" xmlns:xlink="http://www.w3.org/1999/xlink" x="0px" y="0px"
	 width="1680.7px" height="528.2px" viewBox="0 0 1680.7 528.2" style="enable-background:new 0 0 1680.7 528.2;"
	 xml:space="preserve">
<style type="text/css">
	.st0{fill:none;}
	.st1{fill:#FFFFFF;}
</style>
<g>
	<path class="st0" d="M274.3,14.3C135.9,13.5,23.5,125.7,23.2,264.2c0.4,138,109.5,247.6,244.6,250.3
		c142.8,2.8,253.9-110.4,255.4-246.8C524.8,127.3,413,15.1,274.3,14.3z M459.3,129.6c-1.3,0.1-2.2,0.2-3,0.3
		c-14.8,0.1-29.5,0.2-44.3,0.5c-2.7,0-4-0.6-5.2-3.3c-9.5-22.6-21.6-43.5-37.5-62.2c-4.2-5-8.9-9.5-13.2-14.5
		C398,66.7,432.3,93,459.3,129.6z M183.6,52.8c-7.4,9.2-15.3,18.4-22.4,28.1c-10.7,14.7-18.8,30.9-26,47.5c-0.6,1.3-2.4,3-3.6,3
		c-14.6,0.3-29.3,0.3-43.9,0.4c-0.3,0-0.7-0.2-1.7-0.4C111.6,95.8,144.2,69.8,183.6,52.8z M88.4,400.9c6,0,11,0,16,0
		c9.4,0,18.8,0.1,28.2-0.1c2.2,0,3.2,0.7,4,2.7c8.9,20.9,20.2,40.5,34.8,58.1c4.1,4.9,8.5,9.6,13.4,15.1
		C145.7,459.8,114.1,435.1,88.4,400.9z M356.9,478.6c7.9-9.7,16.3-19.3,24-29.6c10.8-14.4,18.8-30.5,26.1-46.9
		c0.5-1.2,2.3-2.6,3.5-2.6c15.9-0.2,31.9-0.1,48.8-0.1C432.2,436.2,397.9,462.1,356.9,478.6z M474.7,375.1c-1.6,2.9-3.2,4-6.6,4
		c-16.6-0.2-33.2,0-49.8,0c-0.8,0-1.5-0.1-2.7-0.3c4.5-14,8.1-28.1,10.9-42.4h-20.7c-2.6,12.9-6,25.6-10.2,38.2
		c-1.2,3.7-2.8,5-6.8,5c-14.6,0-29.2,0-43.8,0V400c13.5,0,27.1,0,40.7,0c-3.4,6.6-6.4,13-9.9,19.1c-13.2,23.1-29.5,43.6-51.9,58.6
		c-13.7,9.1-31.7,15.6-44.6,15.9c0-16.3,0-32.7,0-49.1h-20.7c0,16.2,0,32.4,0,48.8c-16.3-2.5-30.5-8.8-43.4-18.1
		c-23.3-16.8-39.8-39.2-52.7-64.4c-1.6-3.1-3.1-6.2-4.9-10.1c14.7,0,29.3,0,43.8,0v-20.4c-16.1,0.1-32.2,0.2-48.3,0.3
		c-3,0-4.2-0.9-5.1-3.7c-4.6-13.3-8.4-26.8-11.1-40.6h-20.6c2.9,14.8,6.6,29.4,11.4,44c-1,0.1-1.7,0.3-2.4,0.3
		c-15.4,0.2-30.8,0.2-46.3,0.5c-2.9,0.1-4.4-1-5.8-3.4C59.2,352.4,50,325.6,45.8,297c-1.1-7.7-1.5-15.5-2.3-24c16.8,0,33.2,0,49.6,0
		v-20.6c-16.2,0.1-32.5,0-49.2,0c0.4-5,0.5-9.9,1.1-14.7c3.1-24.6,9.6-48.3,20.2-70.8c2.3-4.8,3.7-11.2,7.6-13.8
		c3.7-2.4,10-0.9,15.2-1c6.4-0.1,12.8-0.1,19.2-0.1c6.3,0,12.5,0,18.7,0c-3.1,12.9-6.8,25.6-9.2,38.6c-0.1,0.7-0.2,1.3-0.3,2h20.9
		c0.6-3.1,1.2-6.2,1.8-9.3c2-9.9,5.3-19.5,8.3-29.1c0.4-1.1,2.2-2.6,3.4-2.6c16.9-0.1,33.7-0.2,50.6-0.2v-20.6
		c-15.1,0-30.3,0-45.7,0c5.9-10.6,11.2-21.2,17.4-31.2c12.6-20.1,28.2-37.4,48.5-50.2c11.5-7.2,23.9-11.8,37.3-14.1
		c0.9-0.2,1.8,0,2.8,0c0,16.3,0,32.6,0,48.9h20.7c0-16.3,0-32.6,0-49c19.1,2.7,35.4,10.5,49.9,21.9c23.8,18.8,40,43.2,52.7,70.4
		c0.3,0.7,0.5,1.4,1,2.7c-13.7,0-27.3,0-40.9,0v20.3c15.3,0,30.5,0,45.8-0.1c2.7,0,3.9,0.7,4.7,3.3c4.2,12.8,7.7,25.8,10.4,38.9
		h20.7c-2.7-14.1-6.2-28.1-10.8-42c1.2-0.1,2.2-0.3,3.1-0.3c16.7-0.2,33.4-0.3,50.2-0.5c2.3,0,3.7,0.5,5,2.7
		c13.8,25.2,23,51.9,26.7,80.4c0.7,5.8,1.3,11.5,2,17.7c-16.6,0-33,0-49.3,0v20.7c16.4,0,32.9,0,49.9,0c-0.9,9.2-1.4,18.3-2.8,27.3
		C496.3,325.7,487.7,351.1,474.7,375.1z"/>
	<path d="M113,212.7v3.5c0.1-1.2,0.3-2.3,0.4-3.5H113z"/>
	<g>
		<path class="st1" d="M132.7,400.8c-9.4,0.1-18.8,0.1-28.2,0.1c-5,0-10,0-16,0c25.7,34.2,57.3,58.9,96.4,75.7
			c-4.9-5.5-9.3-10.1-13.4-15.1c-14.6-17.6-25.8-37.1-34.8-58.1C135.8,401.5,134.9,400.8,132.7,400.8z"/>
		<path class="st1" d="M86,131.4c1,0.3,1.4,0.4,1.7,0.4c14.6-0.1,29.3-0.1,43.9-0.4c1.2,0,3-1.7,3.6-3c7.3-16.6,15.3-32.8,26-47.5
			c7.1-9.7,15-18.9,22.4-28.1C144.2,69.8,111.6,95.8,86,131.4z"/>
		<path class="st1" d="M356.1,50.4c4.3,5,9,9.5,13.2,14.5c15.9,18.7,28,39.6,37.5,62.2c1.1,2.6,2.5,3.3,5.2,3.3
			c14.8-0.2,29.5-0.3,44.3-0.5c0.9,0,1.7-0.1,3-0.3C432.3,93,398,66.7,356.1,50.4z"/>
		<path class="st1" d="M127.7,380.3c-4.8-14.5-8.5-29.2-11.4-44h20.6c2.8,13.7,6.6,27.3,11.1,40.6c1,2.8,2.1,3.7,5.1,3.7
			c16.1-0.1,32.2-0.2,48.3-0.3v20.4c-14.5,0-29.1,0-43.8,0c1.9,3.8,3.3,7,4.9,10.1c13,25.3,29.5,47.6,52.7,64.4
			c12.9,9.3,27.1,15.6,43.4,18.1c0-16.4,0-32.6,0-48.8h20.7c0,16.4,0,32.7,0,49.1c12.9-0.2,30.9-6.7,44.6-15.9
			c22.4-15,38.7-35.4,51.9-58.6c3.5-6.1,6.5-12.6,9.9-19.1c-13.7,0-27.2,0-40.7,0v-20.4c14.6,0,29.2-0.1,43.8,0c4,0,5.6-1.3,6.8-5
			c4.2-12.6,7.6-25.4,10.2-38.2h20.7c-2.7,14.3-6.3,28.4-10.9,42.4c1.2,0.1,1.9,0.3,2.7,0.3c16.6,0,33.2-0.1,49.8,0
			c3.4,0,5-1.1,6.6-4c13-23.9,21.6-49.4,25.7-76.3c1.4-9,1.9-18.1,2.8-27.3c-16.9,0-33.5,0-49.9,0v-20.7c16.4,0,32.7,0,49.3,0
			c-0.7-6.2-1.3-12-2-17.7c-3.7-28.5-12.9-55.2-26.7-80.4c-1.2-2.2-2.6-2.8-5-2.7c-16.7,0.2-33.4,0.3-50.2,0.5c-1,0-1.9,0.2-3.1,0.3
			c4.6,13.9,8.1,27.9,10.8,42h-20.7c-2.7-13.1-6.3-26.1-10.4-38.9c-0.8-2.5-2-3.3-4.7-3.3c-15.3,0.1-30.5,0.1-45.8,0.1v-20.3
			c13.6,0,27.2,0,40.9,0c-0.4-1.3-0.6-2-1-2.7c-12.7-27.1-28.9-51.6-52.7-70.4c-14.5-11.5-30.8-19.3-49.9-21.9c0,16.4,0,32.7,0,49
			h-20.7c0-16.3,0-32.6,0-48.9c-1,0-1.9-0.1-2.8,0c-13.3,2.3-25.8,6.9-37.3,14.1c-20.3,12.7-35.9,30.1-48.5,50.2
			c-6.2,10-11.5,20.5-17.4,31.2c15.4,0,30.6,0,45.7,0v20.6c-16.9,0.1-33.7,0.1-50.6,0.2c-1.2,0-3,1.4-3.4,2.6
			c-3,9.6-6.3,19.3-8.3,29.1c-0.6,3.1-1.2,6.2-1.8,9.3h-20.9c0.1-0.7,0.2-1.3,0.3-2c2.4-13,6.1-25.7,9.2-38.6c-6.2,0-12.5,0-18.7,0
			c-6.4,0-12.8,0-19.2,0.1c-5.2,0.1-11.5-1.4-15.2,1c-3.9,2.6-5.3,8.9-7.6,13.8c-10.6,22.5-17.1,46.2-20.2,70.8
			c-0.6,4.8-0.7,9.7-1.1,14.7c16.7,0,33,0,49.2,0v20.6c-16.4,0-32.8,0-49.6,0c0.8,8.4,1.2,16.2,2.3,24c4.2,28.5,13.4,55.4,27.5,80.6
			c1.4,2.4,2.8,3.5,5.8,3.4c15.4-0.3,30.8-0.4,46.3-0.5C126,380.5,126.7,380.4,127.7,380.3z M113,216.2v-3.5h0.4H134h87.5v-61.3
			v-20.6v-26.6h40.2h20.7H325v26v20.3v62.1h84.2h20.6h3.6v38v20.7v44.8h-3.6h-20.5H325v63.3V400v24.5h-45.7h-20.7h-37.2v-23.8v-20.5
			v-63.9h-87.8H113V216.2z"/>
		<path class="st1" d="M410.4,399.5c-1.2,0-3,1.4-3.5,2.6c-7.3,16.4-15.3,32.5-26.1,46.9c-7.7,10.2-16.1,19.9-24,29.6
			c41.1-16.4,75.3-42.4,102.3-79.2C442.3,399.4,426.4,399.3,410.4,399.5z"/>
		<path class="st1" d="M543.2,248.8c0-0.6-0.1-1.1-0.1-1.7c0-0.3,0-0.6-0.1-0.8c-0.7-12.1-2.4-25-5.4-39.5l-2.3-9.7
			c-0.1-0.3-0.1-0.6-0.2-0.8c-0.1-0.5-0.3-1.1-0.4-1.6l-3.4-11.9c-0.2-0.7-0.4-1.4-0.6-2l-0.4-1.1c-0.2-0.6-0.4-1.1-0.6-1.7
			l-0.6-1.6L529,176c-2.1-3.4-5.9-5.5-9.9-5.5c-1.4,0-2.8,0.3-4.1,0.7c-5.1,1.9-8.2,7.2-7.5,12.6l0.4,1.3c0.2,0.5,0.4,1.1,0.6,1.6
			c0.1,0.4,0.2,0.7,0.4,1.1c0.2,0.5,0.4,1.1,0.5,1.7l3.2,11c0.1,0.4,0.2,0.9,0.3,1.4c0.1,0.3,0.1,0.6,0.2,0.8l2.1,9
			c0.3,1,0.4,2,0.6,3c0.1,0.5,0.2,0.9,0.3,1.3l1.7,9l1.2,9.1c0.1,0.5,0.1,1,0.2,1.6c0.1,1,0.3,1.9,0.3,2.9l0.8,9.1
			c0,0.3,0,0.6,0.1,0.8c0,0.5,0.1,0.9,0.1,1.4l0.4,11.4c0,1,0,1.9,0,2.9c0,0.6,0,1.1,0,1.7c0,1.1,0,2.2,0,3.3c0,1.9,0,3.8-0.1,5.7
			l-0.5,9.1c0,0.3,0,0.5,0,0.8c0,0.5,0,0.9-0.1,1.4l-1.2,11.3c-0.1,1-0.3,1.9-0.4,2.9c-0.1,0.5-0.2,1.1-0.2,1.6
			c-0.2,1.1-0.3,2.2-0.5,3.3c-0.3,1.9-0.6,3.8-0.9,5.7l-1.8,8.9c-0.3,1.4-0.6,2.7-1,4.1l-2.3,8.9c-0.3,0.9-0.5,1.9-0.8,2.8l-1.8,5.8
			c-0.2,0.5-0.3,1-0.4,1.5c-0.3,1-0.6,1.9-0.9,2.8l-3,8.5c-0.4,1.3-0.9,2.5-1.5,3.8l-3.5,8.6c-0.4,0.9-0.8,1.7-1.2,2.6
			c-0.2,0.5-0.5,1-0.7,1.5c-0.5,1-0.9,2-1.4,3c-0.8,1.7-1.6,3.4-2.4,5.1l-4.1,7.9c-11.4,20.9-25.4,39.8-41.7,56.3l-3,3.1l-3.2,3
			c-0.8,0.8-1.6,1.5-2.4,2.3c-1.3,1.2-2.6,2.4-3.9,3.6c-1.3,1.1-2.5,2.1-3.8,3.2c-3,2.6-6.2,5.3-9.5,7.7c-7.7,6.1-16.4,12-28,18.9
			c-1.2,0.7-2.4,1.3-3.6,2c-3.6,2-7.4,4.1-11.1,5.8l-3.7,1.8c-0.5,0.2-0.9,0.4-1.3,0.7c-0.8,0.4-1.5,0.8-2.4,1.1l-11.2,4.8
			c0,0-0.1,0-0.2,0.1l-11.5,4.3c-1.7,0.5-3.3,1.1-5,1.6c-0.9,0.3-1.9,0.6-2.8,0.9c-0.6,0.2-1.1,0.4-1.7,0.5c-2,0.6-4,1.3-6,1.7
			l-9.7,2.5l-5.9,1.2c-0.9,0.2-1.9,0.4-2.8,0.6c-1.6,0.3-3.3,0.7-4.9,1l-7.8,1.2c-0.5,0.1-0.9,0.1-1.4,0.2c-0.8,0.1-1.6,0.3-2.4,0.4
			l-11.6,1.2c-1.6,0.1-3.3,0.2-4.9,0.3c-0.9,0-1.9,0.1-2.8,0.1l-4.5,0.2c-0.4,0-0.8,0-1.2,0.1l-1.9,0c-19.9,0.3-39.5-1.7-58.3-5.8
			c-17.4-3.8-34.7-9.5-51.3-17.1c-15-6.9-29.2-15.1-42.4-24.5c-16.3-11.7-27.1-22.5-31.2-26.5c-1.9-1.9-1.9-1.9-2.6-1.9l-0.7,0
			l-0.9,1l0.1,0.7c0.1,1.7,15.1,17.2,32.7,30.4c0.2,0.1,19.5,14.5,42.6,26c7.1,3.5,15.3,7,24.9,10.6c1.5,0.6,3.1,1.1,4.6,1.6
			c0.7,0.2,1.4,0.4,2.1,0.7l6.7,2.2c1.5,0.5,2.9,0.9,4.4,1.3c0.8,0.2,1.6,0.5,2.5,0.7c0.8,0.2,1.6,0.4,2.4,0.7
			c1.5,0.4,3,0.9,4.6,1.2c19.8,4.9,39.9,7.6,59.9,8c0.8,0,1.7,0.1,2.8,0.1c0.9,0,1.8,0,2.7,0c0.8,0,1.7,0,2.5,0c0.9,0,1.9,0,2.8,0
			c1.7,0,3.4,0,5.2-0.1l12-0.8c0.9-0.1,1.8-0.2,2.7-0.3l9.5-1.1c1.8-0.2,3.6-0.5,5.3-0.8c0.9-0.2,1.9-0.3,2.9-0.5l6.2-1l10.1-2.2
			c2.2-0.4,4.4-1,6.5-1.6l1.7-0.5c0.9-0.3,1.9-0.5,2.8-0.8c1.8-0.5,3.6-1,5.4-1.5l12.1-3.9c0.1,0,0.6-0.2,0.8-0.3l11.3-4.3
			c0.9-0.3,1.8-0.7,2.7-1.1c0.5-0.2,0.9-0.4,1.4-0.6l4-1.8c4.2-1.8,8.3-3.8,12.3-5.8c1.2-0.6,2.4-1.2,3.7-1.9
			c12.4-6.7,22.1-12.7,30.5-18.8c3.7-2.5,7.2-5.3,10.6-8c1.3-1,2.6-2,3.9-3.1c1.6-1.3,3.2-2.7,4.7-4c0.8-0.7,1.5-1.3,2.3-2l3.5-3.1
			l3.3-3.2c8.1-7.5,16.4-16.5,25.3-27.6l5.8-7.5c1.2-1.7,2.4-3.4,3.6-5.1c0.6-0.9,1.2-1.8,1.9-2.7c0.3-0.5,0.6-0.9,0.9-1.4
			c0.6-0.8,1.2-1.7,1.8-2.6l6.3-10.1c0.3-0.5,0.5-0.9,0.8-1.4l5.1-9.1c1-1.9,2-3.8,2.9-5.6c0.5-1,1-2,1.5-3c0.2-0.5,0.5-1,0.7-1.5
			c0.5-0.9,0.9-1.9,1.4-2.9l4-9.1c0.6-1.4,1.2-2.8,1.8-4.2l3.5-9c0.4-1.1,0.8-2.1,1.1-3.2c0.2-0.5,0.3-1,0.5-1.5l1.5-4.6
			c0.2-0.5,0.4-1.1,0.5-1.6c0.3-1,0.7-2,1-3.1l2.6-9.5c0.4-1.5,0.9-3.1,1.2-4.6l2.1-9.5c0.4-2.1,0.8-4.3,1.2-6.3
			c0.2-1.1,0.4-2.2,0.6-3.3c0.1-0.6,0.2-1.1,0.3-1.7c0.2-1.1,0.4-2.1,0.5-3.2l1.5-12.2c0.1-0.6,0.1-1.1,0.1-1.7c0-0.3,0-0.6,0.1-0.9
			l0.7-9.8c0.1-2.2,0.2-4.4,0.2-6.5c0-1.1,0-2.3,0.1-3.4c0-0.6,0-1.1,0-1.7c0-1.1,0.1-2.2,0-3.3L543.2,248.8z"/>
		<path class="st1" d="M44.8,158.9c0.2-0.5,0.5-1,0.7-1.4c0.5-1,0.9-2,1.4-2.9c0.8-1.7,1.6-3.4,2.4-5.1l4.1-7.9
			c11.4-20.9,25.4-39.8,41.7-56.3l3-3.1l3.2-3c0.8-0.8,1.6-1.5,2.4-2.3c1.3-1.2,2.6-2.4,3.9-3.6c1.3-1.1,2.5-2.1,3.8-3.2
			c3-2.6,6.2-5.3,9.5-7.7c7.7-6.2,16.4-12,28-18.9c1.2-0.7,2.4-1.3,3.6-2c3.6-2,7.4-4.1,11.1-5.8l3.7-1.8c0.5-0.2,0.9-0.4,1.3-0.7
			c0.8-0.4,1.5-0.8,2.4-1.1l11.2-4.8c0,0,0.1,0,0.3-0.1l11.5-4.3c1.6-0.5,3.3-1.1,4.9-1.6c0.9-0.3,1.9-0.6,2.8-0.9l1.7-0.5
			c2-0.6,4-1.3,6-1.7l9.7-2.5l5.9-1.2c0.9-0.2,1.9-0.4,2.8-0.6c1.6-0.3,3.3-0.7,4.9-1l7.8-1.2c0.5-0.1,0.9-0.1,1.4-0.2
			c0.8-0.1,1.6-0.3,2.4-0.4l11.6-1.2c1.6-0.1,3.3-0.2,4.9-0.3c0.9,0,1.8-0.1,2.8-0.1l4.5-0.2c0.4,0,0.8,0,1.2-0.1l1.9,0
			c19.9-0.3,39.5,1.7,58.3,5.7c17.4,3.8,34.7,9.5,51.3,17.1c15,6.9,29.2,15.1,42.4,24.5c16.3,11.7,27.1,22.5,31.2,26.5
			c1.9,1.8,1.9,1.9,2.6,1.9l0.7,0l0.9-1l-0.1-0.7c-0.1-1.7-15.1-17.2-32.7-30.4c-0.2-0.1-19.5-14.5-42.6-26
			c-7.1-3.5-15.3-7-24.9-10.6c-1.5-0.6-3.1-1.1-4.6-1.6c-0.7-0.2-1.4-0.4-2.1-0.7l-6.7-2.2c-1.5-0.5-3-0.9-4.4-1.3
			c-0.8-0.2-1.6-0.4-2.4-0.7c-0.8-0.2-1.6-0.4-2.4-0.7c-1.5-0.4-3-0.9-4.6-1.2c-19.8-4.9-39.9-7.6-59.9-8c-1.5-0.1-3.5-0.1-5.4,0
			c-0.8,0-1.7,0-2.5,0c-0.9,0-1.8,0-2.8,0c-1.7,0-3.4,0-5.2,0.1l-12,0.8c-0.9,0.1-1.8,0.2-2.6,0.3c-0.5,0.1-0.9,0.1-1.4,0.2L231,2.3
			c-1.8,0.2-3.6,0.5-5.3,0.8c-0.9,0.2-1.9,0.3-2.9,0.5l-6.2,1l-10.1,2.2c-2.2,0.4-4.4,1-6.5,1.6l-1.7,0.5c-0.9,0.3-1.9,0.5-2.8,0.8
			c-1.8,0.5-3.6,1-5.4,1.5L178,15c-0.1,0-0.6,0.2-0.8,0.3l-11.3,4.3c-0.9,0.3-1.8,0.7-2.7,1.1c-0.5,0.2-0.9,0.4-1.4,0.6l-4,1.8
			c-4.2,1.8-8.3,3.8-12.3,5.8c-1.2,0.6-2.4,1.2-3.7,1.9c-12.4,6.7-22.1,12.7-30.5,18.8c-3.7,2.5-7.2,5.3-10.6,8
			c-1.3,1-2.6,2.1-3.9,3.1c-1.6,1.3-3.1,2.7-4.7,4c-0.8,0.7-1.5,1.3-2.3,2l-3.5,3.1L83,72.9c-8.1,7.5-16.4,16.5-25.3,27.6L52,108
			c-1.2,1.7-2.4,3.4-3.6,5.1c-0.6,0.9-1.2,1.8-1.9,2.7c-0.3,0.4-0.6,0.9-0.9,1.3c-0.6,0.8-1.2,1.7-1.8,2.6l-6.3,10.1
			c-0.3,0.5-0.5,0.9-0.8,1.4l-5.1,9.1c-1,1.9-2,3.8-2.9,5.6c-0.5,1-1,2-1.5,3c-0.2,0.5-0.5,1-0.7,1.5c-0.5,0.9-0.9,1.9-1.4,2.9
			l-4,9.1c-0.6,1.4-1.2,2.8-1.8,4.2l-3.5,9c-0.4,1-0.8,2.1-1.1,3.2c-0.2,0.5-0.3,1-0.5,1.5l-2,6.2c-0.3,1-0.7,2-1,3.1l-2.6,9.5
			c-0.4,1.5-0.9,3.1-1.2,4.7l-2.1,9.5c-0.4,2.1-0.8,4.2-1.2,6.3c-0.2,1.1-0.4,2.2-0.6,3.4c-0.1,0.6-0.2,1.1-0.3,1.7
			c-0.2,1.1-0.4,2.1-0.5,3.2l-1.5,12.2c-0.1,0.5-0.1,1.1-0.1,1.6c0,0.3,0,0.6-0.1,0.9l-0.7,9.8c-0.1,2.2-0.2,4.4-0.2,6.5
			c0,1.1,0,2.3-0.1,3.4c0,0.6,0,1.1,0,1.7c0,1.1-0.1,2.2,0,3.3l0.3,12.3c0,0.6,0.1,1.1,0.1,1.7c0,0.3,0,0.6,0.1,0.8
			c0.7,12.1,2.4,25,5.4,39.5l2.5,10.5c0.1,0.5,0.3,1.1,0.4,1.7l3.4,11.9c0.2,0.7,0.4,1.4,0.6,2l0.4,1.1c0.2,0.6,0.4,1.1,0.6,1.7
			l0.6,1.6l0.1,0.3c2.1,3.4,5.9,5.5,9.9,5.5c1.4,0,2.8-0.3,4.1-0.7c5.1-1.9,8.2-7.2,7.5-12.6l-0.4-1.3c-0.2-0.5-0.4-1.1-0.6-1.6
			l-0.4-1c-0.2-0.5-0.4-1.1-0.5-1.7l-3.2-11c-0.1-0.5-0.2-0.9-0.3-1.4c-0.1-0.3-0.1-0.5-0.2-0.8l-2.1-9c-0.3-1-0.4-2-0.6-3
			c-0.1-0.5-0.2-0.9-0.3-1.3l-1.7-9l-1.2-9.1c-0.1-0.5-0.1-1.1-0.2-1.6c-0.1-1-0.3-1.9-0.3-2.9l-0.8-9.1c0-0.3,0-0.6-0.1-0.8
			c0-0.5-0.1-0.9-0.1-1.4l-0.4-11.4c0-1,0-1.9,0-2.9c0-0.5,0-1.1,0-1.6c0-1.1,0-2.2,0-3.3c0-1.9,0-3.9,0.1-5.8l0.5-9.1
			c0-0.3,0-0.6,0-0.8c0-0.5,0-0.9,0.1-1.4l1.2-11.3c0.1-0.9,0.3-1.9,0.4-2.8c0.1-0.5,0.2-1.1,0.3-1.6c0.2-1.1,0.3-2.2,0.5-3.3
			c0.3-1.9,0.6-3.8,0.9-5.6l1.8-8.9c0.3-1.4,0.6-2.7,1-4.2l2.3-8.9c0.3-0.9,0.5-1.8,0.8-2.7c0.2-0.5,0.3-1.1,0.5-1.6l1.3-4.3
			c0.2-0.5,0.3-1,0.4-1.5c0.3-1,0.6-1.9,0.9-2.8l3-8.5c0.4-1.3,0.9-2.5,1.5-3.9l3.5-8.5C44,160.6,44.4,159.7,44.8,158.9z"/>
	</g>
	<g>
		<path class="st1" d="M705.6,362.3H698v-89.4l-37.2,61.8h-1.3l-37.2-61.8v89.4h-7.6V261.7h9.5l35.9,59.5l35.9-59.5h9.6V362.3z"/>
		<path class="st1" d="M796.7,275.8l-59.5,86.5h-6.6V261.7h7.6v86.5l59.4-86.5h6.8v100.6h-7.6V275.8z"/>
		<path class="st1" d="M894.8,292.9c0,17.7-13.2,31-31.3,31h-26.6v38.4h-7.6V261.7h34.2C881.6,261.7,894.8,275.1,894.8,292.9z
			 M887.2,292.9c0-13.9-9.9-24-23.7-24h-26.6v47.9h26.6C877.3,316.8,887.2,306.7,887.2,292.9z"/>
		<path class="st1" d="M1013.8,335.6c0,16.1-12.9,28.3-33.9,28.3c-19.8,0-30.5-9.9-34.6-22.1l6.6-3.6c2.7,9.9,10.8,18.5,28,18.5
			c16.7,0,26.2-8.9,26.2-21.1c0-11.8-8.6-21-23.6-21h-11.4v-7.2h8c14.5,0,23.3-8.6,23.3-20c0-11.5-9.1-20.1-23.1-20.1
			c-14.7,0-22.3,7.3-25.9,16.5l-6.3-3.6c4.7-11.4,14.7-20.1,32.2-20.1c18.4,0,30.8,11.9,30.8,27.3c0,10.2-5.6,18.5-14.9,22.8
			C1006.9,314.3,1013.8,323.7,1013.8,335.6z"/>
		<path class="st1" d="M1111.8,355.1v26.4h-7.8v-19.3h-75.6v19.3h-7.8v-26.4h8c5.6-6.3,10.3-16.5,10.3-36.1v-57.3h62.1v93.4H1111.8z
			 M1037.8,355.1h55.8v-86.2h-46.8v50.3C1046.7,337.6,1042.7,348.2,1037.8,355.1z"/>
		<path class="st1" d="M1122.6,312c0-28.7,22.8-51.9,51.9-51.9c29,0,51.9,23.1,51.9,51.9c0,28.7-22.8,51.9-51.9,51.9
			C1145.5,363.9,1122.6,340.8,1122.6,312z M1218.7,312c0-24.7-19.4-44.5-44.3-44.5s-44.3,19.8-44.3,44.5s19.4,44.5,44.3,44.5
			S1218.7,336.7,1218.7,312z"/>
		<path class="st1" d="M1311.1,292.9c0,17.7-13.2,31-31.3,31h-26.6v38.4h-7.6V261.7h34.2C1297.9,261.7,1311.1,275.1,1311.1,292.9z
			 M1303.5,292.9c0-13.9-9.9-24-23.7-24h-26.6v47.9h26.6C1293.6,316.8,1303.5,306.7,1303.5,292.9z"/>
		<path class="st1" d="M1323.5,312c0-28.7,22.8-51.9,51.9-51.9c29,0,51.9,23.1,51.9,51.9c0,28.7-22.8,51.9-51.9,51.9
			C1346.4,363.9,1323.5,340.8,1323.5,312z M1419.6,312c0-24.7-19.4-44.5-44.3-44.5s-44.3,19.8-44.3,44.5s19.4,44.5,44.3,44.5
			S1419.6,336.7,1419.6,312z"/>
		<path class="st1" d="M1517.4,334.9c0,15.2-12.2,27.4-27.4,27.4h-43.4V261.7h40.1c14.7,0,26.4,11.9,26.4,26.4
			c0,9.8-5.2,17.8-12.9,22C1510.2,314,1517.4,323.4,1517.4,334.9z M1454.1,268.9v38.5h32.5c10.3,0,18.8-8.6,18.8-19.3
			c0-10.6-8.5-19.3-18.8-19.3H1454.1z M1509.7,334.9c0-11.2-8.9-20.3-19.8-20.3h-35.8v40.5h35.8
			C1500.8,355.1,1509.7,346.1,1509.7,334.9z"/>
		<path class="st1" d="M1601.6,331.1c0,17.8-13.2,31.2-31.3,31.2H1536V261.7h7.6v38.4h26.6C1588.3,300.1,1601.6,313.5,1601.6,331.1z
			 M1594,331.1c0-13.8-9.9-23.9-23.7-23.9h-26.6v47.9h26.6C1584,355.1,1594,345.1,1594,331.1z"/>
		<path class="st1" d="M1680.7,362.3h-7.6v-41.2h-27.6l-28.5,41.2h-8.6l28.6-41.5c-14.5-1.9-25.7-14.4-25.7-29.3
			c0-16.4,13.2-29.7,29.6-29.7h39.8V362.3z M1673.1,313.9v-45h-32.2c-12.1,0-22,10.1-22,22.6c0,12.4,9.9,22.4,22,22.4H1673.1z"/>
	</g>
	<g>
		<path class="st1" d="M655,211.6h-4.3v-36l-15.9,25.1h-0.6l-16-25.2v36.2H614v-42.5h5l15.5,24.4l15.5-24.4h5.1V211.6z"/>
		<path class="st1" d="M703.2,169.1v42.5h-4.3v-19.2h-26.5v19.2h-4.3v-42.5h4.3v19.2h26.5v-19.2H703.2z"/>
		<path class="st1" d="M713.4,190.3c0-12.6,9.9-22.2,22.4-22.2c12.3,0,22.3,9.6,22.3,22.2s-9.9,22.2-22.3,22.2
			C723.4,212.5,713.4,202.9,713.4,190.3z M753.7,190.3c0-10.1-7.8-18.1-17.9-18.1c-10.1,0-18,8-18,18.1c0,10.1,7.9,18.1,18,18.1
			C745.9,208.4,753.7,200.5,753.7,190.3z"/>
		<path class="st1" d="M794.8,173.3h-22.4v38.3h-4.3v-42.5h26.6V173.3z"/>
		<path class="st1" d="M797.8,190.3c0-12.6,9.9-22.2,22.4-22.2c12.3,0,22.3,9.6,22.3,22.2s-9.9,22.2-22.3,22.2
			C807.8,212.5,797.8,202.9,797.8,190.3z M838.1,190.3c0-10.1-7.8-18.1-17.9-18.1c-10.1,0-18,8-18,18.1c0,10.1,7.9,18.1,18,18.1
			C830.3,208.4,838.1,200.5,838.1,190.3z"/>
		<path class="st1" d="M887.7,211.6h-4.3v-38.3h-26.5v38.3h-4.3v-42.5h35.1V211.6z"/>
		<path class="st1" d="M945.4,190.3c0,12.6-9.9,22.2-22,22.2c-8.2,0-14.8-4.3-18.3-10.8v26.9h-4.3v-59.5h4.3v9.9
			c3.5-6.5,10-10.8,18.3-10.8C935.5,168.1,945.4,177.8,945.4,190.3z M941.1,190.3c0-10.1-7.9-18.1-18-18.1c-10.1,0-18,8-18,18.1
			c0,10.1,7.9,18.1,18,18.1C933.2,208.4,941.1,200.5,941.1,190.3z"/>
		<path class="st1" d="M952.8,190.3c0-12.6,9.9-22.2,22.4-22.2c12.3,0,22.3,9.6,22.3,22.2s-9.9,22.2-22.3,22.2
			C962.7,212.5,952.8,202.9,952.8,190.3z M993.1,190.3c0-10.1-7.8-18.1-17.9-18.1c-10.1,0-18,8-18,18.1c0,10.1,7.9,18.1,18,18.1
			C985.2,208.4,993.1,200.5,993.1,190.3z"/>
		<path class="st1" d="M1031.6,212.5v16.1h-4.3v-16.1c-13.7-0.9-22.7-10.2-22.7-22.2c0-12,9-21.3,22.7-22.2v-16.1h4.3v16.1
			c13.7,0.9,22.7,10.2,22.7,22.2C1054.3,202.3,1045.3,211.7,1031.6,212.5z M1027.4,208.4v-36c-11.3,0.9-18.4,8.3-18.4,18
			C1009,200,1016.1,207.5,1027.4,208.4z M1050,190.3c0-9.7-7.1-17.2-18.4-18v36C1043,207.5,1050,200,1050,190.3z"/>
		<path class="st1" d="M1099.6,169.1v42.5h-4.3v-35.1l-27,35.1h-3.7v-42.5h4.3v35.1l27.1-35.1H1099.6z"/>
		<path class="st1" d="M1147.2,211.6h-4.3v-38.3h-21.4v20.5c0,14.9-6.3,18.4-14.3,17.9v-4c6.5,0.6,10-2.9,10-13.9v-24.7h29.9V211.6z
			"/>
		<path class="st1" d="M1191.2,198.6c0,7.8-6.5,13-14,13h-16.8v-42.5h4.3v16.5h12.6C1184.7,185.6,1191.2,190.8,1191.2,198.6z
			 M1186.9,198.6c0-5.4-4.3-8.8-9.7-8.8h-12.6v17.7h12.6C1182.5,207.4,1186.9,203.9,1186.9,198.6z"/>
		<path class="st1" d="M1235.6,169.1v42.5h-4.3v-19.2h-26.5v19.2h-4.3v-42.5h4.3v19.2h26.5v-19.2H1235.6z"/>
		<path class="st1" d="M1290.5,169.1v42.5h-4.3V202c-3.6,6.4-10.1,10.5-18.3,10.5c-12.1,0-22-9.6-22-22.2s9.9-22.2,22-22.2
			c8.2,0,14.7,4.2,18.3,10.5v-9.6H1290.5z M1286.1,190.3c0-10.1-7.8-18.1-17.9-18.1c-10.1,0-18,8-18,18.1c0,10.1,7.9,18.1,18,18.1
			C1278.3,208.4,1286.1,200.5,1286.1,190.3z"/>
		<path class="st1" d="M1333,211.6h-4.3V195h-9.2l-13.3,16.6h-5.5l13.6-16.7c-6.7-0.8-12.2-5.7-12.2-12.8c0-7.8,6.5-13,14-13h16.8
			V211.6z M1328.7,190.9v-17.7h-12.6c-5.4,0-9.7,3.5-9.7,8.8c0,5.4,4.3,8.8,9.7,8.8H1328.7z"/>
		<path class="st1" d="M1395.5,211.6l-22.5-20.9v20.9h-4.3v-42.5h4.3v19.3l21.5-19.3h6l-22.9,20.4l23.7,22.1H1395.5z"/>
		<path class="st1" d="M1444.3,211.6h-4.3v-38.3h-21.4v20.5c0,14.9-6.3,18.4-14.3,17.9v-4c6.5,0.6,10-2.9,10-13.9v-24.7h29.9V211.6z
			"/>
		<path class="st1" d="M1492.5,169.1v42.5h-4.3v-35.1l-27,35.1h-3.7v-42.5h4.3v35.1l27.1-35.1H1492.5z"/>
		<path class="st1" d="M1540.7,169.1v42.5h-4.3v-19.2h-26.5v19.2h-4.3v-42.5h4.3v19.2h26.5v-19.2H1540.7z"/>
		<path class="st1" d="M1588.9,169.1v42.5h-4.3v-35.1l-27,35.1h-3.7v-42.5h4.3v35.1l27.1-35.1H1588.9z"/>
		<path class="st1" d="M1628.8,211.6l-22.5-20.9v20.9h-4.3v-42.5h4.3v19.3l21.5-19.3h6l-22.9,20.4l23.7,22.1H1628.8z"/>
		<path class="st1" d="M1680.5,169.1v42.5h-4.3V202c-3.6,6.4-10.1,10.5-18.3,10.5c-12.1,0-22-9.6-22-22.2s9.9-22.2,22-22.2
			c8.2,0,14.7,4.2,18.3,10.5v-9.6H1680.5z M1676.2,190.3c0-10.1-7.8-18.1-17.9-18.1c-10.1,0-18,8-18,18.1c0,10.1,7.9,18.1,18,18.1
			C1668.4,208.4,1676.2,200.5,1676.2,190.3z"/>
	</g>
</g>
</svg>
